/* XPM */
static char *bedrock[] = {
/* columns rows colors chars-per-pixel */
"64 64 85 1 ",
"  c #23221F",
". c #262423",
"X c #2A2624",
"o c #2D2926",
"O c #292728",
"+ c #2D2C2A",
"@ c #322B25",
"# c #382D26",
"$ c #322E2B",
"% c #34312E",
"& c #39342E",
"* c #312F30",
"= c #353331",
"- c #3A3632",
"; c #3D3935",
": c #393739",
"> c #3E3C39",
", c #40352C",
"< c #423C36",
"1 c #423E39",
"2 c #45413C",
"3 c #4A443D",
"4 c #4E493F",
"5 c #50463D",
"6 c #51483F",
"7 c #464440",
"8 c #4A4641",
"9 c #4D4943",
"0 c #524C44",
"q c #584F45",
"w c #524E48",
"e c #584F48",
"r c #565047",
"t c #595047",
"y c #56514A",
"u c #5B544C",
"i c #5E584F",
"p c #5C5750",
"a c #5E5951",
"s c #60574D",
"d c #62594E",
"f c #685949",
"g c #645C53",
"h c #685F54",
"j c #655E58",
"k c #685F59",
"l c #676056",
"z c #6A6157",
"x c #666058",
"c c #6C645A",
"v c #6E685E",
"b c #71665C",
"n c #73695E",
"m c #756C62",
"M c #796E63",
"N c #777167",
"B c #7B7265",
"V c #7E7569",
"C c #807466",
"Z c #81766A",
"A c #847A6D",
"S c #897D6F",
"D c #867D71",
"F c #887E72",
"G c #878275",
"H c #8C8274",
"J c #8E8679",
"K c #918577",
"L c #918679",
"P c #948A7C",
"I c #998D7E",
"U c #968D80",
"Y c #9A8F81",
"T c #979182",
"R c #9C9383",
"E c #9C998A",
"W c #A29686",
"Q c #A09887",
"! c #A49A8A",
"~ c #AC9F8D",
"^ c #ABA392",
"/ c #B1A290",
"( c #B1A996",
") c #B5AC98",
"_ c #BDB5A1",
/* pixels */
"ycx7>04l02dllZIInlvBBlvNnGmBGPTIGNVNV^JGIIlurvr4vVvClfglBzzACtzf",
"03==;--%%<tGnvPJBlnvliNNJJGSGGGVvNVGvGPvJGNg441-rvvvrr442ili44;%",
";=->21;32;yIG646;;2;&;;<;<44;>;;>2rAGvGv4i4=%;2;4<rG<22;%%<<;%o%",
"-==;;1%2<-4EI2;&;24;;<<222<&>27wr77iINIA;772;22;;2iI4<&;&%&%%+ %",
"=:=;;<=1-%;cG<222291>4724r97>7797=>lGJG2=741;7174>r^;=&%=;;=%o+;",
"+*$-=;=;-&<4B4-2247;>1299477>79w4=i7GAr&94477744;14I-2%o$;;=%o%;",
"++%%2>>=$=<rPz&4r2;&=224972>>49747rrlr%2wy9442422<2C;<&+&=1=o%%-",
"++&22;=-<1;%Ji%34&%;2214792>>>4727;2ri;2rw94;;7>4<<B-2;=%;1=%+o&",
"o%-,2,#2;23-4g-49922>2;492-;>1222>2;l224r42;4494r;4P;4<<;;;+o&%@",
"$=;24&2<23<;1x-4r7221;;2>;==2>22;>>;i;24r4444w7231dM1>;<&<&+%&-o",
"%-,2<&1;<22<1x=y42<<;;117;%;2>7;=;>=<<242r9794243wPm0;>;<<@%+-@@",
"&;@22%2,34447N1r42>&&<>74>=-4712;>==2;24;222;2441cPGu=><<<@@&&%@",
"-&&;2<1;222>7Gr;24<;=4477;>77942>%%;r24r442<<424;NBHn%2221$$;@o%",
"2&2442;1<232NIa1434&;42>7;7794r742iTPGmPPJGl22<4uGPRz%>2--$$<@o;",
"6&244434dllyiJl4ilG4249yp29444urrlINvv4CJPPPKAr4vZE(n111;<rNm2iB",
"CGltli4dMI^llGGNJIGGGlvy9aapi4lvvrarl4<rlANIIImfiviviGmlrAJA622f",
"bMrlNl2duNvvGIGI!^EGPNlpalvNNv<2r1;;-&%<;36zl<42;>;2v^!KgVVk3<1k",
"u3;33&-<4>2;-<gJGvlw<-;<%++>l4<2<-1;=-<<,<22;;22;<>22!Ts131&-#@<",
"Zl;0wpw4ppp441;;;&-;-2342>=2r-2-<;;&<<-%%;<5<<2;-222;RRz-18&;#%<",
"Hf%rllgaaplv42114;4779974>;;r>-12;;1<1,%@23<232;%>22;QRz<33&>&<<",
"dr%4azaaayiu4>9777y442994>1;2-;<<>;2112&;;<;2322;2<;&GR0<9<-;--2",
"46<rygaayiy4>;>>>>9->7972>>24<2122;;>;%%;&&2;232222<;sSn2321<&<t",
"b4<wplaaiiw3;;7-=>w>>4797171p><-2;--;%%-%&&<2383<;--&0Bz;01-<<qb",
"r41ayiagyw2;&1>>;741>7>>724>4=;14;>;=+;-%&&-22<27=;&;<zd2<2;&<gg",
"lz430yyp04>>%;2972;=>272;1714+<12====%=%$=;23<;22--;;;sz%2<<&>tB",
"izr;299w471;;:24>=;;:297>>714%;27>+%O+++$=-=>>232-<-&4Cz&04<&-2z",
"Ni3;><>399999992;==>>449>-;4G41<2>%%+=++%@@;;&22;-<-&z~C-232<&<H",
"iyr-;-28229w97977;=>>>31>--v!v;1=+=%=+++%&-;<<<>2--%;m/)><2<&<3n",
"4gl;;->832797999>;>123322*-P(A21%;9474--&5siBfq&2392kI~Id,<&2kbn",
"zny0yanvw>;>72112pwrv4;27-N^IJVlvvGlvGi2r0Bnzss-lHZVKBbbb2521nbf",
"4a2pAGGTN39VxiaGGNwca3<2lNEIry<;=41;;42rnIKM0mzmHRZnks6t4<&<3KC3",
"mp4xVDvpw23mia4ayxGJNvlGEJgv1%-=;-=+=;;1sKhHnm443t2&3<&11@;&<bCn",
"7=*+-+*===-:==*$:8jck9pFU-p8-:,742>>w7>25miCb0-%%%@o+O$--;2&&0Vs",
">==>;>>==;-:;<-<>33e0SPFm>1198><4>2>w74r1gu1;$-&;##+*X*>*-%>&rHz",
"+=>2>>;:==;712177188mFFb:=7787<72;94py4419g;<$+$&@%$XX+@$==-&2n4",
"+*>>=:::--:>27177187mFw<:8y88<17>2=74y94337,-$+o&X$$.XO%o&%%&;z<",
"1>>=>:1:*>-771<7>><1cm<989w982799>>477>4311=$+$Oo @+.XX@X&&**%l1",
"9>=122>**:=77<1>*-11sh,11<e987we>>9yww41709<*@o@@.o .X+;:-%-$+-2",
"y7>>21--=:>>;=-*1-:%ec$771988799972wyww>1s0;$$+*&OO. +<;+==%%&t<",
"11>=::-@=;-1>@;;<&&%0s*88897::78>24ia37;%s0#X.O@$@+.@%;<*=$%%>t&",
"9>>;>>1+@<:;$=>1<#&<Cn-0q91<<<9:>>4ye&##@0e@<@..%%%o##;&=*+$+2d&",
">;>;;>>&&-=-==--===9A0-3611178<-44;=;<@&-fso*OOo%X% %;&;$$$+%-l%",
"9;.%%;=;X$*+=:=-++:VYs-315<170974>94;=@#;ek%1+Oo++o@&;=$-Xo=%$do",
";<+o-*+O$:*+=$=-O++VYZ;<09<7u07:312<;=-@,0s**+.oX%&%#2;;%$+%@@V-",
"-+O.X.+*-<**$*$>$$OBDYn;89<7e1-->2w41>-&&us***OO+ &@#-3-=++=@3P,",
"-+..XX+*+$OOO$*,**OZDbD;30777111>2742;>1=hb<$o:9r2&@#2<&% %4ivH2",
"1;.X %X*O>$X+$*==&=FPkg3701>1;;1;=>72>2030bM09geru3%rl4-$+%&iz44",
"ygtzvi2=$<$=-0ks3<1Sk:<113;7euc8=+3yyugy0-1821-$%#&2zNG4=&o@&&4l",
"ms&3q1he&@$$$-0<====+*-;==:MVHTJ;+208;*=;$+O+$$,-%&z<sg,$=$-&%-t",
"-310h1q-Oo@%*$#==-<-;71:===hHLWg+>w1-&=1<**$o>@&32;2n(b=;=@;-$;-",
"#&0hn9+X++#**=*<$:::=-$=O==O0NV&+>81;*=$$@X@.-<$<;&3h_M==+=<>&oX",
"=$$%8$X+o$$@@%*=+:-:$+$-$==.%2;%%:-:1--1:+o$X>%=-+%tZCg=$$=;=-@&",
"$+X;-$$@@*$#--==o$$*+++;$=+X%--;;2>>1:=-=$$=---*-X$ym63=;==;;&%=",
"*+=um$$XXo@$+@*=+OXo@@%=%%+O<>><<<&;-*$=;=-=@=**=$-ih3;<;=422>;-",
"$+=hM+$$X$$$*$+o..X++*@%%=O+d><<3<22>o+=-@@=X@*$+*%y9510-&11<>&+",
"==4ZM$$@$-*#*=$+++@.++X+=-O2Hz;>8;<2;X*-==$-$X$*+*$9Zh,02--;>-&=",
"@=ubF*@-*-;;=*o*=*OOO=@X+:*cLe9*-17>-*18,*=*=@;<%+o2Cr2;<&-;<<<+",
"$1MbSO@***:;=*o*+O=OO%oX@$*VJ8k,&211>->-==@@$=1*%X+<z3;;&2-;;;-%",
"X<CSD=o$===--*O++$*+$%@++%-ULFLc->131-::-*$*=*><oX+2n223;;<-<&-1",
"+*bYC$@*%#-%%O+o**O++%=++%8YULFS--72<=*--%*-@<1>$X+0Bu42&&%<<<<-",
"o-h!b+$&#<*+@#$XO**O+++@+=VTRUP~0:72<-=*-*=$=1;2;43dKIb23$@$14-$",
"=1sIM9&$+#=@$$XO$-+=$+&%1nHHZBMM91<<>71pgkZk0410i24VKGP664&22zi4",
"ehCCbe,&=*-103<31wugbstgBzzCYFMmsegjmmsbvBcBDm04svvnzczfBfdtlvcu",
"cnASCdjuemNCmmmksganmzzh0izcZZCYNekkNZmMBmecSnduzBznbBVBGcBHVdlc"
};
