/* XPM */
static char *honey_block_bottom[] = {
/* columns rows colors chars-per-pixel */
"64 64 242 2 ",
"   c #9C4719",
".  c #A4451A",
"X  c #A44C1E",
"o  c #A5531A",
"O  c #A7571A",
"+  c #AE541A",
"@  c #B0551B",
"#  c #B35C1C",
"$  c #AE621E",
"%  c #B7691A",
"&  c #BE721F",
"*  c #AB5E20",
"=  c #B86A21",
"-  c #C05D17",
";  c #CC750B",
":  c #D5780A",
">  c #D47B0B",
",  c #C16B1B",
"<  c #C46919",
"1  c #C9771A",
"2  c #CD7D19",
"3  c #D77B14",
"4  c #D47C15",
"5  c #D2761B",
"6  c #D37C1A",
"7  c #DB7D1A",
"8  c #E27D02",
"9  c #C46D22",
"0  c #C87A24",
"q  c #D47B24",
"w  c #DA8608",
"e  c #DD830D",
"r  c #DD8C0B",
"t  c #D58314",
"y  c #DC8415",
"u  c #D78F14",
"i  c #DB8C13",
"p  c #D5831A",
"a  c #DA841A",
"s  c #D38C1E",
"d  c #DD8D1C",
"f  c #DD9315",
"g  c #DF9817",
"h  c #DC931B",
"j  c #DE991E",
"k  c #E38502",
"l  c #E88B04",
"z  c #E4860C",
"x  c #E58C0C",
"c  c #EB8C0C",
"v  c #F18E08",
"b  c #EB9B06",
"n  c #E3960D",
"m  c #E89308",
"M  c #EB9B0B",
"N  c #F0930C",
"B  c #E18313",
"V  c #E38C15",
"C  c #EA8D15",
"Z  c #E2831A",
"A  c #E38B1B",
"S  c #EA8E1D",
"D  c #E49415",
"F  c #EC9314",
"G  c #E49B15",
"H  c #EC9B14",
"J  c #E3931C",
"K  c #EB941B",
"L  c #E49B1B",
"P  c #EB9C1C",
"I  c #F39614",
"U  c #F49B14",
"Y  c #F89E15",
"T  c #F1961B",
"R  c #F49B1D",
"E  c #F99D1B",
"W  c #F4A50D",
"Q  c #F9A90E",
"!  c #EDA215",
"~  c #E7A21B",
"^  c #E9A419",
"/  c #ECA31C",
"(  c #F1A314",
")  c #FDA217",
"_  c #F6AA14",
"`  c #FAAC14",
"'  c #F5A31C",
"]  c #FBA31D",
"[  c #F4AB1C",
"{  c #FAAD1C",
"}  c #FEB314",
"|  c #F7B11E",
" . c #FBB21D",
".. c #FEB91A",
"X. c #CC8223",
"o. c #CE8A23",
"O. c #D38322",
"+. c #DD8323",
"@. c #D58E23",
"#. c #DB8D23",
"$. c #D9882B",
"%. c #D69121",
"&. c #DC9522",
"*. c #DE9924",
"=. c #DB932A",
"-. c #DD992C",
";. c #CD8532",
":. c #DB9637",
">. c #DF9C33",
",. c #E48D23",
"<. c #E78B26",
"1. c #E59423",
"2. c #EB9524",
"3. c #E39C24",
"4. c #EC9B23",
"5. c #E4962B",
"6. c #EB952A",
"7. c #E39C2A",
"8. c #EC9B2C",
"9. c #F39623",
"0. c #F29C24",
"q. c #F89E22",
"w. c #F39D2B",
"e. c #FA9E2C",
"r. c #E38632",
"t. c #E39D31",
"y. c #EC9D31",
"u. c #E49A3A",
"i. c #F39D33",
"p. c #F19F3F",
"a. c #DFA039",
"s. c #E5A126",
"d. c #ECA324",
"f. c #EEA923",
"g. c #E6A32A",
"h. c #ECA42B",
"j. c #EDAB2C",
"k. c #F3A324",
"l. c #FAA325",
"z. c #F4AC25",
"x. c #FBAB24",
"c. c #F4A22C",
"v. c #FBA42B",
"b. c #F4AC2B",
"n. c #FCAB2C",
"m. c #F6B126",
"M. c #FBB424",
"N. c #FDB925",
"B. c #F6B12C",
"V. c #FBB42B",
"C. c #FDBA2C",
"Z. c #E3A334",
"A. c #ECA433",
"S. c #ECAB33",
"D. c #E6A539",
"F. c #EBAB39",
"G. c #F5A333",
"H. c #FAA533",
"J. c #F3AC33",
"K. c #FDAB33",
"L. c #F6A43A",
"P. c #F9A53A",
"I. c #F5AB3B",
"U. c #FCAC3B",
"Y. c #EEB03E",
"T. c #F5B234",
"R. c #FBB433",
"E. c #F6B832",
"W. c #FDBB33",
"Q. c #F5B23A",
"!. c #FBB43C",
"~. c #F7B83E",
"^. c #FDBB3C",
"/. c #FEC02C",
"(. c #FEC134",
"). c #FEC13B",
"_. c #DB9845",
"`. c #E69F45",
"'. c #EBA443",
"]. c #ECAB43",
"[. c #E3A54A",
"{. c #EBAD4A",
"}. c #F8A344",
"|. c #F2AC43",
" X c #FBAC43",
".X c #F5AC4B",
"XX c #FCAE4B",
"oX c #EDB249",
"OX c #F4B243",
"+X c #FCB343",
"@X c #F7B942",
"#X c #FDBC44",
"$X c #F3B24B",
"%X c #FDB44C",
"&X c #FDBC4C",
"*X c #E9A956",
"=X c #FDAF53",
"-X c #F8AF59",
";X c #EFB255",
":X c #EDB25C",
">X c #F3B657",
",X c #FEB353",
"<X c #FDBB52",
"1X c #FFB659",
"2X c #FEBA5C",
"3X c #E9AC66",
"4X c #F3B964",
"5X c #FDBD62",
"6X c #EFB476",
"7X c #F6B876",
"8X c #FEC244",
"9X c #FEC24C",
"0X c #FFC848",
"qX c #FEC254",
"wX c #FDCA54",
"eX c #FEC45B",
"rX c #FECA5C",
"tX c #FDD15F",
"yX c #FEC563",
"uX c #F8C77C",
"iX c #F7BB84",
"pX c #EFB890",
"aX c #F8C484",
"sX c #F2C48C",
"dX c #FACB8A",
"fX c #EEC59D",
"gX c #F9C797",
"hX c #FACC95",
"jX c #FBD096",
"kX c #EFC5A1",
"lX c #F9C9A5",
"zX c #F7D2A4",
"xX c #F5CBB6",
"cX c #FDDAB5",
"vX c #F6D3B9",
"bX c #FCD5BD",
"nX c #FCDAC3",
"mX c #F7D6C9",
"MX c #FBDED9",
"NX c #F9E3D7",
"BX c #FAE7E7",
"VX c #FDEFF1",
/* pixels */
"s @.s 2 O.p +.@.J f G P / m.[ f z.W.).(.C.(./.M.| | _ ^ ^ j.j.T.f.f.f.s.j.E.j.j.j.j.g.s.s.g.f.j.s.j L *.j 3.g.3.*.&.s s %.%.o.%.",
"h &.d d t 2 p t d K P d.' [ ! b b | W.(.C.N.N. .| | | ^ f.j.(.(.E.E.j.s.j.j.j.j.g.g.g.s.s.*.s.g.s.g.f.g.s.s.&.*.*.s.3.&.s h %.%.",
"L d.3.J f 2 2 1 t t f / / ~ b b W } C.N.N.N.N. . .| ^ ^ f.(.(.(././.).j.s.j.j.j.g.g.g.s.g.s.s.g.j.j.j.b.S.j.S.g.*.*.s.3.j h.*.*.",
"*.3.L D J t 2 t 1.i t r n n G b ` .. .N.C.(.C.C.M.[ G g f.(.).(././.).(.j.s.j.j.j.S.S.S.S.S.T.Y.g.d.s.*.*.*.*.7.g.g.3.s.d.j.j.j ",
"f.L G L P L J f i t t w r n ! [ _ { N.W.8X8X#X8X8X!.J.Q.B.W./.N...C.(.E.j.*.s.j.F.@XJ.Q.S.T.Q.Q.T.g.3.g j 3.L h h u h h j s.f.f.",
"f./ s.~ / k./ / G G f V D G ! / / M.C.(.8XwX9XqX9X^.^.!.B.C.N.......N.M.E.g.g.T.!.Q.J.T.Q.Q.T.T.T.j.d.~ L ~ L g i u u h f g L L ",
"/ g L g g J ~ d./ ' / ! G G L d.z.R.C.W.9X9X8X8X#XR.n.b.z. .` } } } ` [ b.g.g.g.A.h.h.h.S.J.L.T.J.J.b.k.d.G n n r r f L g L ~ / ",
"~ ~ g f h f g L 3.~ P P H G D h.R.R.C.C.wX9X&X8XV._ H J i x x b W Q _ z.b.c.Q.S.j.5.7.7.h.J.J.J.J.J.z.h.! G n n n j 3.~ f.f./ ~ ",
"^ ^ g g f f h h h h h L L L h.4X.Xc.x.W.8X8XW.W.x.[ V 3 : : ; ; w w r d.J.G.J.S.c.8.h.c.h.k.b.z.c.b.k./ / ! ! d./ g.Y.B.B.^ ^ ~ ",
"f./ ^ ~ L L g f h h f h 1.J 7.3X*Xy.4.b.^.W.C.V.x.l.8.A x V K V w e y 4.G.b.j.c.J.J.j.d.d.b.B.T.b.z.d.z.f.f.b.B.B.B.T.&X&Xj./ ~ ",
"f.G G G G ~ L L L 3.L J L J J 1.t.y.6.h.n.V.M.x.M.' 2.V F K k.k.F F F c.Q.G.c.h.G.c.4.c.l.M.C.C.C.B.z.m.b.m.V.C.C.B.^.<X<X^.T.f.",
"z.^ G G G G D L g.h.d.3.3.3.4.3.3.1.1.8.H.n.x.x.x.E R 9.0.0.H.l.E R R J.!.Q.c.4.4.4.4.4.k.{  .M.N.C.C.| M.M.N.W.(.W.~.^.Q.E.j.m.",
"M.[ G G L ~ d.4XuXS.4.h.8.h.8.8.8.2.6.6.I.n.n.n.l.k.w.l.q.0.k.l.k.E 0.c.S.A.4.y D K 0.K 0.' Q { M.M.M.| [ | N.C.W.W.E.T.Q.Q.B.V.",
"/ [ ~ ! ! z.Q.cXcX.Xj.b.h.w.A.G.A.8.8.8.b.T.n.n.n.c.c.z.w.k.k.q.0.J J J d a t 6 y y V D K U U [ { { { M.M.M.m.V.C.C.z.b.B.m.z./ ",
"b.z.[ f.z.B.Q.hXlXI.c.c.8.h.w.G.i.i.y.8.H.K.n.v.l.l.l.k.w.R 4.K J D A y y a 6 6 6 6 t a i A 3 z F ( { x.M.M.C.V.M.z.B.B.T.!.m.f.",
"!.T.f.f.z.b.K.$X5Xb.J.c.c.G.w.i.P.i.i.y.v.n.l.n.l.k.k.c.c.P K D F D A y y y y p 6 6 4 p a d y : : w U [ m.z.C.).m.V.^.b.R.@XT.f.",
"!.T.z.f.f.b.B.b.b.b.c.k.c.G.G.i.i.P.i.y.e.v.v.v.l.k.w. X=Xw.K K 2.R K C C A Z y a 6 a a a Z Z C k c H x.z.V.^.8X#X^.^.b.T.!.B.b.",
"B.B./ b.b.z.b.b.b.K.8.4.8.c.L.L.P.H.i.6.G.n.l.n.n.l.H.,X=X Xi.2.4.A A V V V A A A A ,.Z A A A T T I ' n.W.8X9X9X#X&X^.b.b.R.R.V.",
"R.V.m.b.z.f.k.b.b.c.4.k.w.8.w.w.w.6.1.2.w.l.v.n.K.K.P. XL.L.w.w.9.F V V V V V A <.6.8.S 1.,.2.T R c N ] V.#XqX9X&X!.B.b.T.8X8X8X",
"V.V.C.B.f.z.z.b.k.d.k.c.c.0.2.2.1.,.1.2.0.E x.n.n.K.H.H.L.P.c.v.v.R C V C A ,.}.7XL.2.2.6.2.9.T T c x c U H.#X#XT.n.M.).8X0X8X^.",
"E.C.C.C.B.m.b.f./ d.0.4.0.2.w.8.2.,.d 1.0.k.l.l.n.v.c.w.e.w.0.K T T C C C 2.i.gXnX-X8.w.6.8.w.q.E I N l l I H.c.x.z.N.^.8X^.B.B.",
"V.C.V.V.M.z.b.k.k.k.k.0.4.2.1.1.1.5.2.2.q.l.n.n.l.q.v.w.w. Xw.P 0.9.T 2.0.e.H.iXxXXXw.i.w.w.w.9.E l.E N k k F l.x.M.V.W.^.).m.N.",
"M.M.V.N.z.f.R.b.k.d.c.0.w.4.2.4.8.L.w.w.k.q.l.R.v.w.U.e.i. XL.9.P.P.w.0.8.w.i.}.7Xi.w.i.w.i.w.q.E l.] Y v k N K.x.V.C.W.8X^.C.m.",
"M.M.M.V.V.z.R.J.c.h.k.4.w.w.c.H.H.G.L.G.l.l.U.+X XU. Xw.e.P.e.w.H.P.0.2.9.9.e.e.i.w.w.9.w.w.v.l.l.l.l.] U v ( R.V.C.W.^.eXwXW.m.",
"^.m.V.E.^.b.z.J.%XI.J.c.w.G.H.H.P.P.H.v.K.!.%X%X%X X Xe.0.P.H.H.e.w.0.0.w.9.0.w.w.H.w.2.6.w.H.v.v.v.l.l.Y U ] R.V.R.(.#XeXrX&X^.",
"9X8X^.8X#XT.b.+X<X X+XH.c.c.c.G.G.G.c.c.n. X,X%X%X XH.0.v. X+XU.K.H.w.0.w.0.0.w.e.w.9.0.w.w.q.v.v.l.l.l.] Y ] R.V.V.W.W.8XrXeXrX",
"eXrXqXqX&X@X!.$X<XXXI.G.c.w.w.w.G.H.w.0.I e.XX XP.e.0.K.!.%X%X+Xv.v.v.v.q.9.0.w.w.0.2.w.w.0.9.9.q.9.w.l.l.x.{ R.R.N.C.W.^.qXqXqX",
"qXeX2XeX&XqXyXrX<X+XJ.G.c.w.4.w.c.H.w.K z v e.e.w.q.l.K.+X+Xv.c.H.v.K.v.l.w.w.0.K P 9.0.0.0.w.l.v.q.q.l.v.v.n.R.^.V.C.C.W.9X9XqX",
"qXeXqX2X&XrXrX%X%X XL.c.c.0.4.0.H.w.0.K c 8 C 9.e.E l.K.U.+Xc.l.v.n.v.v.c.w.k.0.0.0.0.w.9.0.e.v.K.v.v.K.n.n.n.n.&XW.M.N.C.C.W.).",
"#XqX&X#X&X&X%XOX+X XL.c.L.G.c.w.c.w.0.K c 8 c e.v.v.n.K.+X+Xl.v.l.l.l.v.l.0.c.H.0.4.0.4.e.0.v.v.e.v.v.K.v.n.x.l.&X#XC.M. .N.C.W.",
"#X<X#X&X&XeX%X%X%X|.U.P.H.P.H.w.c.w.0.R I v N v.v.K.n.K.,X,XP.l.l.k.l.v.v.k.w.H.w.w.0.0.w.e.e.v.v.e.v.H.H.c.' ] #X9X^.N. .N.W.V.",
"^.qX#X#XeXeXeX<X+XI.G.4.4.c.H.w.0.v.e.q.E I I U.n.v.K.!.,X2X<XU.U.v.l.K.H.H.w.G.%XL.G.c.c.c.l.K.U.U.H.H.v.c.R ] W.eX9X^.W.W.W.W.",
"E.rXrX^.qXeXrX%X+XJ.c.P P 4.2.0.w.c.q.e.q.Y Y K.n.v.K.R.%X2X2X,X%X XU. X XH.w.P.$X X XP.c.v.0.H.H.U.U.U.H.c.' ' ' 8XrXwX#XW.W.V.",
"R.wXwXE.&XeX&X+XU.L.I.4.4.2.R R R 0.9.q.q.l.E n.K.l.n.K.K.,X2X,X1X2X1X,XXX XL. X,XXXL.L.i.w.<.2.e.H.U.U.H.G.c.k.J t.2XrX&XV.V.b.",
"B.W.W.V.^.!.Q.I.I.J.I.8.2.2.9.w.q.w.e.q.v.v.v.v.!.n.n.n.K.%X%X,X1X1X1X1X,X$X2X2X1X XL.G.w.6.<.,.6.6.w.w.i.c.c.w.,.0 F.<X&XR.V.f.",
"N.C.V.V.E.!.@X!.Q.I.G.y.y.8.w.v.K.v.v.v.v.v.v.v.+X+Xl.x.x.n.U.U.%X1X=X,XXX2XyXXX=X XI.w.6.2.2.4.w.i.2.K ,.#.,.6.q O.#.+X%X^.E.M.",
"C.C./.C.m.B.T.T.Q.J.A.L.A.G.i.e.v.v.H.H.H.v.q.q.+X+Xn.l.x.x.v.K. X,XXXXXXXXX=X}.}. XL.w.8.i.c.0.w.w.4.2.i.A.8.4.1.0.z.~.^.!.8X(.",
"/.(.(.N.[ _ [ / z.K.J.G.G.G.v.v.v.v.v.H.H.v.q.E U.<X+Xv.] l.n.v.U.,XXX X=X,X%XXXXX XU.L.i.L.P.w.c.w.0.A q $.4.c.k.z.f.f.!.8X8X(.",
"/.C.C.| [ [ [ [ [ [ c.c.G.G.c.H.K.K.K.e.H.e.9.E v.<X%X!.n.n.U.v.H.,XXX X1X1X1X,XXXL.L.0.w.w.H.w.w.c.c.K 7 q q 9 p / ! r ( C.(./.",
"C.N.N.M.M.| [ { z.{ z.n.n.l.w.v.U.U.U.U.H.v.T T E !.eX2X+XU.K.v.H.,XyXU.=X5X1X,X XL.w.P K 2.0.4.0.c.0.K B r.r.r.q p F M b  .W./.",
"N.C.N.m.M.| ^ | M.M.z.n.l.k.2.<.e.G.U.U.H.H.e.q.T <.,X1X,XK.v.v.H.%XrXH. X1X,XXXP.L.P.0.4.2.P 4.4.4.1.A e Z 3 A }.r.r b W ..N.M.",
"W.(.(.W.C./ ! | m.x.V.W.k.c.2.+.<.q r.i.i.i.e.w.<.< `.=XXXP.v.9.0.U.K.v.U. XL.G.L.L. Xc.P 1.S A d A J D x z x V y.t.6.H _ | ..V.",
"8X0X#X#XT.k./ | M.z.R.#XQ.G.+.0 9 X X X @ 9 q <.5 9 q }.XX XK.l.l.v.n.v.v.P.U.P.L.}.G.1.h d 2.1.J #.h 1.K P P P P P L P P [ C.W.",
"8X8X~.B.z.( [ N.W.^.8X9X+X5.9 # #     . . # 7 A <.S 9.H.P.P. XK.n.n.n.x.k.G.L.L.U.y.7.1.1.1.8.h.8.4.1.3.4.4.P d.k.l.k.z.z.z.V.W.",
"^.B.x.[ x.H ! M.(.8XwX&X$X6.q < @ @ @ @ - 7 C S S 9.0.2.P. X%XR.n.R.R.n.E R E P 1.8.8.8.5.d 5.8.7.I.A.3.4.d.k.c.z.b.m.n.z.z.V.V.",
"V.{ [ [ [ b m ! [ T.&X&XI.@.p 1 5 5 7 7 <.Z Z S K q.R z C K.R.n.V.K.n.l.R R U P P h.A.L.t.&.7.8.F.|.j.8.P P d.z.z.b.n.B.z.x.z.V.",
"V.{ _ [ { ! M m b _ K.J.4.1.h A 7 < 5 5 7 S T 9.2.R m v v Y K.R.n.x.x.] ] ] ] P 4.4.A..XXXA.g.h.j.h.8.3.d L d.b.b.b.B.b.n.V.V.V.",
"M.M.{ { { { ` b m m R d.L 4.4.A A 7 ; < 5 3 7 B C C C l v ) x.l.x.n.n.x.x.{ F V 3.4.d.D..X|.8.g.h.c.h.3.f H / f.J.T.n.B.V.R.V.V.",
"V.C.N.{  . . .` b k M d.1.L J J A y 4 4 <.7 4 : B z x c ) ' { x.V.R.R.R.V.l.J J 4.j.j.OX2X$Xg.A.h.h.J.h.4.f./ D.aXdXOXB.B.E.V.R.",
"C.W.C.M.N.M.M. .W b ! b.P 4.L L P P J J y y > : e V H R U l.x.R.+X&X%X#X#XQ.U.U.b.h.S.%X>X|.3.h.A.j.G.d.d.k.z.;XcXMXeXT.T.V.V.V.",
"V.C.V.V.N.V.M.M.` W [ B.d.L L P 4.d.d.P P P D V V D J P P x.V.R.#X&X&X&X<X+X!.!.b.b.j.OXOXF.h.d.h.d.d.1.3.f.b.|.iXnXuX!.E.R.B.V.",
"V.M.V.C.V.V.V.M.| ` _ W.m.z.k.3.L L P f./ P P R F F D d.c.K.V.W.8X9X&X&X^.V.m.B.b.B.b.S.OXI.S.d.d.h.h.d.b.c.b.].gXbXcXqXR.B.z.z.",
"z.z.M.z.M.z.M.M.M. . .W.W.M.C.V.T.@XI.J.j.d.d.P P D D 8.I.B.V.C.qX9X9X#XC. ._ B.T.Y.j.g.F.I.S.d.h.j.b.j.b.b.b.{.mXvXNXuXT.B.B.m.",
"m.z.z.z.z.z.z.M.N.V.N.C.).C.C.C.W.wX&X&X<X&XQ.j.d.4.L.dX7X$XOX9XyXqX~.T.T.T.T.OX4XyX$XoXS.S.h.j.c.b.J.b.T.b.h.6XmXNXNXjXT.E.V.n.",
"V.z.n.W.C.V.V.V.B.V.C.C.8XW.N.C.C.W.^.#X<X2XOX-.7.A.4XmXmXvXzXcXsXoXOXF.Z.Z.>.[._.:.'.F.S.G.j.J.J.S.T.J.R.b.j.sXxXVXBXlXF.C.V.B.",
"V.x.z.V.V.C.R.R.R.V.M.C.9X).N.N...N.C.E.8X&XF.X.& 2 _.mXBXNXnXsX[.D.Z.Z.-.Z._.sX:XD.F.g.j.Q.T.T.T.T.T.B.J.z.b.gXxXMXVXkXF.E.T.C.",
"V.B.n.m.B.n.B.W.R.V.m.| 8X9X).N...N.C.W.#X%XQ.S.7.-.D.zXNXpX`.:.7.S.Z.-.-.%.:.6X:XoX>Xg.g.T.R.T.T.T.T.T.T.z.b.4XaXfXBXkXu.R.R.E.",
"R.m.b.W.W.W.W.V.V.M.[ x.W.wX9XW.C.W.W.C.^.qX~.Y.F.F.F.[.dXdX;XoXF.oXF.F.Z.Z.:.:XuXdXdXS.s.j.B.T.Q.T.T.S.j.s./ T.>XvXMX3Xy.U.W.R.",
"R.B.b.W.).^.^.W.R.B./ [ m.9XrX0X^.W.W.V.T.qXwX@X&XoXD.Z.D.[.:X[.F.Y.F.F.S.j.F.oXuXdXoX*.s.f.j.j.T.T.Q.S.j.3.L g.oXxXxX*Xh.J.R.R.",
"R.b.d.k.E.W.^.~.R.R.m.[ / T.rXrX8XE.W.B.W.rXtXT.@XoX:.:.X.:.;.$.*.*.-.@.g.S.j.j.Y.D.*.j j ~ b.j.j.S.T.T.b.d.3.8._.pXkX6X'.h.R.T.",
"B.h.3.#.6.-.b.R.R.E.K.z.L X.$XeX&XW.V.f.j.).(.E.~.#XY.S.*.t.;Xt.@.:.%.*.g.S.j.j.j.g.s.j 3.3.g.j.j.j.S.B.j.d.3.&._.iX3XpXgX$XB.j.",
"s.h.s 2 = * $ & 9 O.3.h.#.1 #.OX%X^.V.m.m.C.C.C.C.T.T.Y.Y.S.D.$.= 0 =.%.*.s.s.f.g.g.g.*.g.-.*.7.*.s.g.g.s.s.3.@.= X.[.sXgX%XJ.j.",
"&.X.9 % $     o o , d 3.%.3.c.^.@X!.).C./.C.C.N.B.~.~.@X~.Y.g.g.a.>.g.s.s.s.g.g.g.j.S.j.*.&.*.g.*.s *.&.h &.&.s @.1.%.-.:.o.7.g.",
"*.o.2 $ O O O O % d P L P z.f.b.^.8X0X(./.(.(.N.[ [ [ f.g.j.j.g.j.g.g.j.j.j.j.j.j.g.g.g.*.g.h.j.g.g.j.*.s h *.&.&.X.s %.%.o.%.&."
};
