/* XPM */
static char *packed_ice[] = {
/* columns rows colors chars-per-pixel */
"64 64 39 1 ",
"  c #A7DDE9",
". c #ADDFEB",
"X c #B6D7E3",
"o c #B6D9E7",
"O c #BADAE7",
"+ c #B5DDEA",
"@ c #BDDDE9",
"# c #88EAF3",
"$ c #98EAF3",
"% c #ADE0EC",
"& c #B4E1EC",
"* c #BCE1EC",
"= c #ABE6F1",
"- c #ADEAF2",
"; c #B3EAF3",
": c #BDEBF4",
"> c #C2DFEA",
", c #C5E1EC",
"< c #CCE4ED",
"1 c #D1E6EF",
"2 c #D4E8EF",
"3 c #C6E7F1",
"4 c #CFE7F0",
"5 c #C5EBF3",
"6 c #CCEBF3",
"7 c #D2E7F0",
"8 c #D5E9F1",
"9 c #DCECF3",
"0 c #C1F0F7",
"q c #C6F5F9",
"w c #D6F1F7",
"e c #DCF1F6",
"r c #DDF2F8",
"t c #E1EFF5",
"y c #E5F1F6",
"u c #E9F3F7",
"i c #E5F2F8",
"p c #EBF4F8",
"a c #F0F7FB",
/* pixels */
"tyyuuuuupuuuaauupppapaupu0;ry9y98888814<7><<<7>2ttttttttt29999yy",
"9tyyutyupuuuuuuupppapppuy986846498888<4<><<<7882ttut9ttt98999ttt",
"y9tyutuyuuuuuuuupuppppuut9r7887>@8841,<<,<1<7988tututtu9ttttt999",
"tttuuuyyuyyuaauuypypuuut99983<21<<<<<,,,><17899tutuuttttuuytyt9t",
"t9yyyytyttuuuuuuuuupuyyyt998<<<1,<<<,<><>7799t9ttupi=;9puyuttt9y",
"899ttyeyutuuuuuuupuuuyyt92221<<><<<<<,<<47768t992upt5ttuuuuyt999",
"y9yytw6puuuauuuuuyyuyte99211<<,<<<41,><<79449ti999pi9tuuuyyyytye",
"yyyyyqupuuuuuuuuywyyy9e892<<<<<,<77<<<<<78999it69pp6ttuuuuuyytyy",
"yyiuyappuuauuuuay5wyy988827<<<<<<811<1>189tt7tirippruupuyyu9yyyt",
"uiuipappuuuaauuuy5:6988478<>,<>><<<<112879ttrte66tpuiuupauuuyuyy",
"ppyiuppuuuuauutte699848472<>>,>7<,<1<28999tutpu8itpuuypupuuuuuuu",
"apuuuuupauuuuuuu9e88244412,>>>>>,>,<1198999tiuitupp9i99re9yuuuuu",
"ppuuyuupuuuuuuut9229111211>>@>>>@@><2889t9teuuutpppt858479tuuupp",
"ppuyytupuututttt9992111<>>1>>>>OO@>,<299974ttiaiputt6*<<<89yuupp",
"uuuiyytuuutut919t22<<>>1>>>>>>>O>>@<12294979tiupppp88,%*,79tppuu",
"uuyuuyuuutttut29922<,<><><>>>>>><>@><<988799itiuu9u9<*.*<<8tppuu",
"iyyyyuiui9ttt8974<7<<>>>4>O>>>>>>>>><1114899ttyyu9993>,&*,7typyy",
"uyreyiyyt999897<,<44>><>,>O>>>>>oo>,<1<<189tttytiui97,,*,<1tppuy",
"uyiiuyyy9974<4<<,,,,oo@>OOoO>>>>>>>><><<229ttyttiut984,4,,89ipui",
"priiyyty9887<,,,,>@++@+@ooo><<<>,>><>111t2849t8trttt97,><479tupi",
"iuuq59r998843*& +,>O@>>OO>>@22>1<<><>2171292789t9utt94544<<78ruu",
"r98699898977<>& *,>>>>>>>>><>>>>1<11728211111ttt99ei94**,,<<489e",
"7785435878973.@@.*>>>>>>>21<2>1><111121288899199t86554>+*>,<,337",
"44<*<<78974;,<>,+*1>>>>722>12>111188t9998817889t995=543@,<>,,,,4",
",<,,4<77987:>4@@,,,,>><221228291199tttt2tt2292228r6584,,,,,<,,*,",
"<,,,><7977774>>O,,,<1><9219229299t2tt2tttytt9tt29898944><,<<,,**",
",,,<4498877,4>><<,,711112>21789ttttttttttttttttt9899977774173>,&",
",1,777999974><>,,<,41922112t9747tttttttuttuyytttt99rut999989743*",
",37899988744>,<,4<2219192228tt9t7ttyuuututitytyiii:#rttrttt994,,",
"788999t998774,1<178929292294ttt999tyutyputtitttui9wiuutityt997,4",
"9999t99997,.7<7277889222t992tt29t99tyutuuutyuttittiuppiipuu9r999",
"t99it98987,4777977ttt999229t8tttttttyutuuuyuuutprippppupi4i8tt9u",
"8uupi9998<887747tttty9t9y2999tyytittuitpytuuuutuuupppppap0-ri9y9",
"9t9tpt9tt22t8977tttt9ttye29999t9t9ututttuuuuuuyyyupappppi9868664",
"o9tptit9299ttt99ttuyy9y9yyy9tt9ettttt9t9tyuuyuyypyuuuppyy9y4888>",
"79titit9337t999tutuu9tyyyyyttt559uiitt999tyuuyuuyuypuuut9998*398",
"779titii9=6ttttttuuu-;9yyuiyyt49yyr99t9729yuuuttuuupuuyy99921489",
"8889tttt96659tt92uuy4tyyuyyyyr9999y89981<9tttuuuyppuuiu999228182",
"<889tr99tt569it989ut29ttyeeyy4289999888211299ytuypuurtt992<11211",
"<<79i99rt9re9ti6wuu<229tyeyyt82<12222<11<111299tt99ut999921<<<<<",
",7229299999y89uryyy42229966998<<,181<1<1<<<<<99t959ey222821>1<>1",
"<218998999yyy9w669921<49989878<<<<12127211>><<222432992128<>><>>",
"<181t999999t89t49222,222977171<<,<17898211<<>>1122><<12111>>>>>1",
"18188299981798981121<,<2112<<1<141889tt71>1>1<<114><<<11221>OO>1",
"@<>28989911,<2111<<1<<<<1<<<,<1189t9yit81>>1>1<1<<>><1<111<>OX<1",
">>1>18981<<><<11<<,1222411<<<1899t9u9tt91111111><<O<><1<1><>><1<",
">>111928<1><<<<<,1<<8288721<<889y9w9ry9711>81711>>><>><1<>><><><",
">>>>1>t8<1<,>,<<<<<2899y89288999y959ty98>><1211><><><<<<><>>>O1>",
">>>>>281>1<1>><171789ttpt88999tty9689t99<1<1917<>><>,,,,<,O,,><>",
"1>1<181<111<11217999ttiit96589t9yrr999991<<7<27<<<1<,,,,<>O,>><>",
"<<>,<><>19188999t9tipuuiti9:8yttyrt9y9y981<,<<4<<>><>O>,>*XO><>>",
"<><<1>1188219989999iputt9ut8w8ttyytr99tr9<7,,4,4<>>>>,O>XXX*<1<>",
"<>>1<11118971999tipputt9t9t9w89t9yyt9998871>,,3*O,>OO,>OX>>O22><",
"2<>11828217219tt999iiuttt99t9r9yt9ytwr8992>1,,,+*,,,>,,,>><><>>>",
"<111281178889799t765eriri9yiyy9ty99yt889921,>4>>&*,O>,>,>11<1>1<",
"1228t999887788999r6;686w9999rtty989rtt9999,,<>3,*,,>>>,<12122X12",
"192ttt99tt9992288r78ir:8t9t99yyyy9w9r9y9777>,,4><<>>1>>812128291",
"ty2t99t9tt9t992t979wi96w8tt999yyr9888rt874477,>>>>1<1>1821988922",
"tttttttuyttytttt999r9tt66rtt9wry99i66999747<<<><,>>111221<22199t",
"ttyttytuytyyttttt9rttttt99yy6wuui9999898777<,,<,<71>128811899812",
"2tttyyyyuyttytyutt5$r99ti89pryyy999998887774<>1>4,87291922229t9t",
"t9ttuyyuuttuuttuiewttityy99rw899y899812877774>1111998t22229299t9",
"999tyyyupuutuututiyuputtu9y99yypy82<44177<<+<112122922229229tt92",
"ttttuutyupupupuuruppppuyr6t9tiypy922<<<<<<<>1<<9119tt99t29999ttt"
};
