/* XPM */
static char *yellow_terracotta[] = {
/* columns rows colors chars-per-pixel */
"64 64 45 1 ",
"  c #906620",
". c #966D24",
"X c #946E2A",
"o c #986F2A",
"O c #957125",
"+ c #997226",
"@ c #96712B",
"# c #9B742C",
"$ c #9D792E",
"% c #967332",
"& c #9C7631",
"* c #977831",
"= c #9E7A33",
"- c #9E7D3A",
"; c #A0772D",
": c #A27B2E",
"> c #A17731",
", c #A27D33",
"< c #A27D39",
"1 c #9E8037",
"2 c #9F813A",
"3 c #A7812F",
"4 c #A48235",
"5 c #A98535",
"6 c #AB8936",
"7 c #A5833B",
"8 c #A8863C",
"9 c #A7893C",
"0 c #AA8A3D",
"q c #A68442",
"w c #A88641",
"e c #A78942",
"r c #AA8B43",
"t c #A7874A",
"y c #A78A48",
"u c #AC8D4A",
"i c #B08E45",
"p c #B08F49",
"a c #AE9147",
"s c #AD914A",
"d c #B19145",
"f c #B1934C",
"g c #AC8F50",
"h c #AE9251",
"j c #B19452",
/* pixels */
"7,=&-7==qer7r70r887re$err68r9urr8rrrr775,47:,488=,77,,,,=77&,,e$",
"y8yjh85rjrir7r4<787245,4:$<,7,4=4r,q7,8,55r7wwy848pyq0555r5ipru,",
"7wr48e:yeq8ysrr458r787058;04e944874874<47y,7ey8w,7,&,75,<,,,=77=",
"4,745,,79844,,75r;88s9477774,4978rrafdr8w56jd0y0w680f5y05uurrud7",
"88w8r05i478:q4=,,55774,898r$qrr8497q4,r,,40e5,,a5r5e<qqyrrrr47r9",
"74w5h44575rrr;48p0w0r0w478<;<e747a0rru500y0r08d7,r,7rrpjfprra084",
"598447$$<0u0490dr0rue77$s,r,r5,78err785w388h454r750srsr5r:,aa:#=",
"p98rprard5756a07r45494,8q787r788,e9a:+,748,75$+55u5585rr6009450r",
"4688e54e8,7r5r45884r7;6r04rr8q857084;0if0y0iyiya8y58jrqf,,890759",
"44$,,4,,,;,4,7<,4:79890r87r0rw55070380585rrw57r0#0r5e84q86ee7er7",
"7,4877,w475$=7e4e,r005546807y4,588r786,rrr8rrr7e65i5uaud0d0ap8ry",
"<4,,7;,775,,=eq7847<7,r,w570r07rwr6w40688778378r5676,ru848rrf557",
",747742<78r+<er88<yye7848754:,;,,,$,;,:q4547q7<7wwy.7yrre8rrw57<",
"8=:7,=q<7<7$re7,7,:83<e5rr87,<7577,,r5778#:81&r27<7;yr4,74$8,56<",
"59r:=4e7h4e8a7=5w<a0rr4,=,7#<4&7:w7,<,85870;$4rqj,r7r0<5e-u0r4w,",
"re75r<ee5784r79q7e8rd787,,,=rr55ar7e5wq8re77r,er4w85r8w7,ewrpww6",
"<q7-,78r$8qr7r7rse88777,84=44#wqq78<75,>&7==#774477<@e4,u=w7e77,",
",4#7777=$5r4477,<1,77<,;,4=,,:,&;&=&&y:57+q:8=7<,<,*q%2q<<747<,;",
"4#4e=h,r7r7,78=r075878808$48765787rwi07we:75;77t7,qwqay4$7re785r",
"404yu7787e8e8=<787,<78477<=74:,#<;,<7&,4,4r47q7r$$e7u87s4se85r87",
"&-,4477e5,8,,,77,,,,4<9,,;,&,==5-7=7;:7$;,;#e7eq7;8q=8e=,ur8,*7=",
"<4eru981,yq908977eer8r,7r,,;,+,#,774;,7534e72==X=<77e78-<e7,5847",
"r9y407r7rwir565r9y7rw67r48,,,7,r=4;,,40004,$4726:q<r8q248755w0,8",
"88w477,7,,9,,,7557,,<,=4,,$,r,47rr087477$4err59e9877878uyr0004<4",
",8=,77=77e48e7<<74=88$8:,=:$4+#4=4&$=@,:=$=<4;7epurry587,0$$;7$,",
"rq78=87,y8277rq9eee7-==,47r70407,:#6=,4,4:,4,+$=,#.&$,4qe4syr774",
"9eqyerwy9eeq744777q77844,<4O===8;=,=+=4$=,49:0r:07wq87wree27ee7y",
"ry9yr,q77747y,8yu9e77434744477;74457r5647r#=,4748,ee,7777eey-7er",
"q7<r78,47=<74,4q7qw78#=747,4,448$$7,47=9,=,8<,77<<78wgpuserrqeqe",
"78<7=<=4-=4w77qeyeuw9777$=,=,7<e,874$===<8,77w77w787we7<<e9,78ye",
",7+,7r<9y9777,7$7e7<<=78e998<77<4<9erq87r7<478;w8,77urrari45qr08",
"=X#,7=$,=5$rr89re77-=747#=4$#,=7=7,,==4+r,54y:,708ryuee7#,q,7qu7",
",,7<,,4r87,r,,<,7,,,<,,7,8,,,=q<,45,55,w8874<$e,#<779,7r78uee8-=",
",>,-,74=<,4<,,<777448r477,,,7r,77,;>74,;,<47<#=,,,,X#=8,2787w5<<",
";$,e,,4,7,,=<7,,===,7=<<4,,#+X&=55,5,=,,78,,4w774rr878=2e=7<===,",
":>7<&,&=:##,r,,7=qe,e=*,==8,,<u=#$,7<,,,==,7,,&,424=7=87ur75<7,,",
"<w7,<77,5,,7==$<$r<4,<e7,,,;,<<<&#@=&,;#=e,,=4<q,7==,,,57=-==,$,",
"77,=<$2=7,w8744<747<<<<,,77,8,<7,<e7<<:,7<=#,,q7q,<qr7r7qeeq,7,,",
"777,<77877<,,,q4&<$,4-7<4,778=7==<&,=7,q87774q7e7q8,7777-7q2,7,7",
"&&=$4-774,<7#&$=<9884ree7ereq7<4e<<877,87,-<447q,2,,4-7$e7e7,<7<",
"7yw88qqa7q7q7e74<,,q47877q,eeeq77+-,--q$&,$4<q7872r489a8eseq$=,,",
">,,787887q,,&q24ee-q7w<<778eey<=#=,,#747y88e4eu8797e7e,77er77--4",
"877<,7-<w<8yq<877=,77eqe7eee7,<q7,-<-q,;<,4y7e8=y44eyyuureu,7e78",
"<<<<q7e877w478qqqq8<784y4q7q,87,$&<<8q7877=777<q7wyru5es7yu9e,q7",
"77q745,7e$w7q74,77,787rr,88<7r7u,4#q=eu$%=878qet87879<q9wryrew8,",
"7qe7ey9su5e987<877<r9w877<777,778<87q=&+w77,<78<784yr4r0r0yg7q77",
"=<7=2q8=*,-e784,*<=,74=7,7<,$,77=<=<7,&447,7r,qe8r4r798rre,a7774",
",,8777477ge7y7y<8,y2*<7<#q,,,w,4q,,4==0y,774=<7,,q4$=7797,er=7,=",
"&<7=q&%qqq77qq<&&7<$teq<,;==,w<4;,,&,,&<,,&#,,4&e,,q,w7%&qt7=87=",
"<q,%#$<7;-q@&<<ty<<ru<,<,===,&;,,,;<,#,=;,;q4:,,-7,=<<,uuqq7r7,,",
"<<$7,,<,4q7eu<<% >w,-r==<<:,-,,&;<=,&=2=8=#<w,,<q>ee&<qt27e-q&<,",
",$,&&,=$=<=-<<,,,<<&%@,,,=&7=,,-,,,<<--7#<8r<;;77%%o,<,-q=&-<<78",
"&#+&&&#<<=<<q=<=&&&$;&&#<>,&$<=,=<,7q-,2+q&=&<<<$,,,=4<,7qp<<,<&",
",o<,<wq<q7--7-*-=&&&=<q8w<,77q77,<,,=<7#<2q=88,,=7,8,7<q7<e-<&<&",
">7-,,,,7w<=<,<<7&&8=,,<=77<<&77#7,<,=7,&r,&,<,&%X,&,&&,-%q-<<,=&",
",-,-<w,,=+X,,<7,,,=<-<7=,<=+&#X,&&&@$#X&*&&&*&$=$&&<<,<qw<q&<<,,",
"<==,,==,,,,<=,,<,4,<,<,-=&&=--,+-&&=--<o&&<&&&*&<78q7<7=77<77,<5",
"887,<,777w4,4,,,,=,,,y,=*===&,&#&=<&,,;#&<7&,87748<877<,7<877-7<",
"y04r9,,88u,,484u0rrair7,7*=7<777<<7&-77<<,&,<;57g04487,6ywri5r,,",
"r48e4qr8,59,,rir07r9$0i5e847,,77=,,+%<+=<8,<750,<7$$,5y4778y8075",
"4058uy68rurrr0779y094,i5yr0r0a9r=&o,<<<,&&=-r0rr090rar000sr8j,5w",
"u7rr445r077<8,50s,48478,<,qw4747<-<<<8<q7788y00rrw8ye#rr5u75w848",
"rr8qr777574478r,45,;557<,&&==7&=--,<7,,$=7#=78077rw955,r4ryrri00",
"8q=e9,7=774ra080pedur774=&$&&qq=<8,$w4,<4-4,7,,w,,=774w87,77847,"
};
